<svg viewBox="0 0 200 120" fill="none" xmlns="http://www.w3.org/2000/svg">
  <path d="M155.5 55.5C155.5 39.2 142.3 26 126 26C119.5 26 113.6 28.1 108.8 31.6C102.5 23.4 92.6 18 81.5 18C62.4 18 47 33.4 47 52.5C47 53.5 47.1 54.5 47.2 55.5C36.6 57.1 28.5 66.4 28.5 77.5C28.5 89.9 38.6 100 51 100H151C163.4 100 173.5 89.9 173.5 77.5C173.5 66.4 165.4 57.1 154.8 55.5C154.9 55.5 155.5 55.5 155.5 55.5Z" stroke="white" stroke-width="12" stroke-linecap="round" stroke-linejoin="round"/>
  <path d="M105 45L85 75H100L95 105" stroke="#C19A6B" stroke-width="12" stroke-linecap="round" stroke-linejoin="round"/>
</svg>
